{
	"asset":{
		"version":"2.0",
		"generator":"Created using the official Cinema 4D glTF Exporter 1.000x290161"
	},
	"scenes":[{
		"nodes":[0]
	}],
	"nodes":[{
		"name":"Butaca",
		"children":[1,
		2,
		3,
		4,
		5,
		6,
		7,
		8,
		9,
		10,
		11,
		12,
		13]
	},
	{
		"name":"DerPata",
		"mesh":0
	},
	{
		"name":"DerUnion",
		"mesh":1
	},
	{
		"name":"DescansaPiernas",
		"mesh":2
	},
	{
		"name":"IzqUnion",
		"mesh":3
	},
	{
		"name":"IzqPata",
		"mesh":4
	},
	{
		"name":"DescansaPies",
		"mesh":5
	},
	{
		"name":"Enchufe",
		"translation":[0,
		0,
		-1.05],
		"rotation":[0,
		0,
		0,
		-1],
		"scale":[1,
		1,
		1],
		"mesh":6
	},
	{
		"name":"TapaEnchufe",
		"translation":[0.162,
		39.61,
		-9.585],
		"rotation":[0,
		0.289,
		0.957,
		0],
		"scale":[1,
		1,
		1],
		"mesh":7
	},
	{
		"name":"DescansaBrazos",
		"mesh":8
	},
	{
		"name":"Cinturon",
		"mesh":9
	},
	{
		"name":"SeguroCinturon",
		"mesh":10
	},
	{
		"name":"Butaca",
		"mesh":11
	},
	{
		"name":"Lateral",
		"mesh":12
	}],
	"meshes":[{
		"primitives":[{
			"attributes":{
				"POSITION":1,
				"NORMAL":2,
				"TEXCOORD_0":3
			},
			"indices":0,
			"material":0
		}]
	},
	{
		"primitives":[{
			"attributes":{
				"POSITION":5,
				"NORMAL":6,
				"TEXCOORD_0":7
			},
			"indices":4,
			"material":0
		}]
	},
	{
		"primitives":[{
			"attributes":{
				"POSITION":9,
				"NORMAL":10,
				"TEXCOORD_0":11
			},
			"indices":8,
			"material":1
		}]
	},
	{
		"primitives":[{
			"attributes":{
				"POSITION":13,
				"NORMAL":14,
				"TEXCOORD_0":15
			},
			"indices":12,
			"material":0
		}]
	},
	{
		"primitives":[{
			"attributes":{
				"POSITION":17,
				"NORMAL":18,
				"TEXCOORD_0":19
			},
			"indices":16,
			"material":0
		}]
	},
	{
		"primitives":[{
			"attributes":{
				"POSITION":21,
				"NORMAL":22,
				"TEXCOORD_0":23
			},
			"indices":20,
			"material":0
		}]
	},
	{
		"primitives":[{
			"attributes":{
				"POSITION":25,
				"NORMAL":26,
				"TEXCOORD_0":27
			},
			"indices":24,
			"material":0
		}]
	},
	{
		"primitives":[{
			"attributes":{
				"POSITION":29,
				"NORMAL":30,
				"TEXCOORD_0":31
			},
			"indices":28,
			"material":0
		}]
	},
	{
		"primitives":[{
			"attributes":{
				"POSITION":33,
				"NORMAL":34,
				"TEXCOORD_0":35
			},
			"indices":32,
			"material":1
		}]
	},
	{
		"primitives":[{
			"attributes":{
				"POSITION":37,
				"NORMAL":38,
				"TEXCOORD_0":39
			},
			"indices":36,
			"material":0
		}]
	},
	{
		"primitives":[{
			"attributes":{
				"POSITION":41,
				"NORMAL":42,
				"TEXCOORD_0":43
			},
			"indices":40,
			"material":0
		}]
	},
	{
		"primitives":[{
			"attributes":{
				"POSITION":45,
				"NORMAL":46,
				"TEXCOORD_0":47
			},
			"indices":44,
			"material":1
		}]
	},
	{
		"primitives":[{
			"attributes":{
				"POSITION":49,
				"NORMAL":50,
				"TEXCOORD_0":51
			},
			"indices":48,
			"material":1
		}]
	}],
	"accessors":[{
		"bufferView":0,
		"type":"SCALAR",
		"componentType":5123,
		"count":84,
		"byteOffset":0,
		"min":[0],
		"max":[23]
	},
	{
		"bufferView":1,
		"type":"VEC3",
		"componentType":5126,
		"count":24,
		"byteOffset":0,
		"min":[16.789,
		0.015,
		-8.827],
		"max":[21.28,
		28.129,
		39.904]
	},
	{
		"bufferView":1,
		"type":"VEC3",
		"componentType":5126,
		"count":24,
		"byteOffset":12,
		"min":[-0.667,
		-1,
		-0.921],
		"max":[1,
		1,
		0.894]
	},
	{
		"bufferView":1,
		"type":"VEC2",
		"componentType":5126,
		"count":24,
		"byteOffset":24,
		"min":[0.088,
		0.367],
		"max":[0.183,
		0.629]
	},
	{
		"bufferView":2,
		"type":"SCALAR",
		"componentType":5123,
		"count":180,
		"byteOffset":0,
		"min":[0],
		"max":[42]
	},
	{
		"bufferView":3,
		"type":"VEC3",
		"componentType":5126,
		"count":43,
		"byteOffset":0,
		"min":[7.217,
		0.462,
		45.624],
		"max":[8.62,
		9.624,
		50.957]
	},
	{
		"bufferView":3,
		"type":"VEC3",
		"componentType":5126,
		"count":43,
		"byteOffset":12,
		"min":[-0.997,
		-0.925,
		-1],
		"max":[0.986,
		0.809,
		0.925]
	},
	{
		"bufferView":3,
		"type":"VEC2",
		"componentType":5126,
		"count":43,
		"byteOffset":24,
		"min":[0.129,
		0.719],
		"max":[0.284,
		0.778]
	},
	{
		"bufferView":4,
		"type":"SCALAR",
		"componentType":5123,
		"count":336,
		"byteOffset":0,
		"min":[0],
		"max":[75]
	},
	{
		"bufferView":5,
		"type":"VEC3",
		"componentType":5126,
		"count":76,
		"byteOffset":0,
		"min":[-18.591,
		6.779,
		47.661],
		"max":[18.634,
		56.8,
		52.611]
	},
	{
		"bufferView":5,
		"type":"VEC3",
		"componentType":5126,
		"count":76,
		"byteOffset":12,
		"min":[-0.999,
		-1,
		-1],
		"max":[0.999,
		0.998,
		1]
	},
	{
		"bufferView":5,
		"type":"VEC2",
		"componentType":5126,
		"count":76,
		"byteOffset":24,
		"min":[0.011,
		0.78],
		"max":[0.344,
		0.995]
	},
	{
		"bufferView":6,
		"type":"SCALAR",
		"componentType":5123,
		"count":180,
		"byteOffset":0,
		"min":[0],
		"max":[143]
	},
	{
		"bufferView":7,
		"type":"VEC3",
		"componentType":5126,
		"count":144,
		"byteOffset":0,
		"min":[-8.527,
		0.462,
		45.624],
		"max":[-7.124,
		9.624,
		50.957]
	},
	{
		"bufferView":7,
		"type":"VEC3",
		"componentType":5126,
		"count":144,
		"byteOffset":12,
		"min":[-0.995,
		-1,
		-1],
		"max":[0.995,
		0.809,
		1]
	},
	{
		"bufferView":7,
		"type":"VEC2",
		"componentType":5126,
		"count":144,
		"byteOffset":24,
		"min":[0.302,
		0.714],
		"max":[0.458,
		0.776]
	},
	{
		"bufferView":8,
		"type":"SCALAR",
		"componentType":5123,
		"count":84,
		"byteOffset":0,
		"min":[0],
		"max":[23]
	},
	{
		"bufferView":9,
		"type":"VEC3",
		"componentType":5126,
		"count":24,
		"byteOffset":0,
		"min":[-21.309,
		0.015,
		-8.827],
		"max":[-16.818,
		28.129,
		39.904]
	},
	{
		"bufferView":9,
		"type":"VEC3",
		"componentType":5126,
		"count":24,
		"byteOffset":12,
		"min":[-0.667,
		-1,
		-0.921],
		"max":[1,
		1,
		0.894]
	},
	{
		"bufferView":9,
		"type":"VEC2",
		"componentType":5126,
		"count":24,
		"byteOffset":24,
		"min":[0.006,
		0.512],
		"max":[0.101,
		0.774]
	},
	{
		"bufferView":10,
		"type":"SCALAR",
		"componentType":5123,
		"count":984,
		"byteOffset":0,
		"min":[0],
		"max":[186]
	},
	{
		"bufferView":11,
		"type":"VEC3",
		"componentType":5126,
		"count":187,
		"byteOffset":0,
		"min":[-16.996,
		0.178,
		28.809],
		"max":[16.891,
		5.601,
		46.724]
	},
	{
		"bufferView":11,
		"type":"VEC3",
		"componentType":5126,
		"count":187,
		"byteOffset":12,
		"min":[-0.933,
		-0.979,
		-1],
		"max":[0.933,
		0.979,
		0.999]
	},
	{
		"bufferView":11,
		"type":"VEC2",
		"componentType":5126,
		"count":187,
		"byteOffset":24,
		"min":[0.732,
		0.014],
		"max":[0.939,
		0.223]
	},
	{
		"bufferView":12,
		"type":"SCALAR",
		"componentType":5123,
		"count":1584,
		"byteOffset":0,
		"min":[0],
		"max":[287]
	},
	{
		"bufferView":13,
		"type":"VEC3",
		"componentType":5126,
		"count":288,
		"byteOffset":0,
		"min":[-4.161,
		12.046,
		-16.791],
		"max":[4.325,
		19.091,
		-5.01]
	},
	{
		"bufferView":13,
		"type":"VEC3",
		"componentType":5126,
		"count":288,
		"byteOffset":12,
		"min":[-0.999,
		-1,
		-1],
		"max":[0.999,
		1,
		1]
	},
	{
		"bufferView":13,
		"type":"VEC2",
		"componentType":5126,
		"count":288,
		"byteOffset":24,
		"min":[0.446,
		0.202],
		"max":[0.531,
		0.366]
	},
	{
		"bufferView":14,
		"type":"SCALAR",
		"componentType":5123,
		"count":972,
		"byteOffset":0,
		"min":[0],
		"max":[178]
	},
	{
		"bufferView":15,
		"type":"VEC3",
		"componentType":5126,
		"count":179,
		"byteOffset":0,
		"min":[-3.14,
		7.26,
		-18.506],
		"max":[3.302,
		13.468,
		-16.233]
	},
	{
		"bufferView":15,
		"type":"VEC3",
		"componentType":5126,
		"count":179,
		"byteOffset":12,
		"min":[-0.988,
		-0.993,
		-0.998],
		"max":[0.988,
		0.998,
		1]
	},
	{
		"bufferView":15,
		"type":"VEC2",
		"componentType":5126,
		"count":179,
		"byteOffset":24,
		"min":[0.545,
		0.253],
		"max":[0.601,
		0.341]
	},
	{
		"bufferView":16,
		"type":"SCALAR",
		"componentType":5123,
		"count":2940,
		"byteOffset":0,
		"min":[0],
		"max":[533]
	},
	{
		"bufferView":17,
		"type":"VEC3",
		"componentType":5126,
		"count":534,
		"byteOffset":0,
		"min":[-36.883,
		29.931,
		-15.075],
		"max":[-25.155,
		51.349,
		42.673]
	},
	{
		"bufferView":17,
		"type":"VEC3",
		"componentType":5126,
		"count":534,
		"byteOffset":12,
		"min":[-1,
		-0.999,
		-1],
		"max":[1,
		0.999,
		1]
	},
	{
		"bufferView":17,
		"type":"VEC2",
		"componentType":5126,
		"count":534,
		"byteOffset":24,
		"min":[0.612,
		0.352],
		"max":[0.824,
		0.643]
	},
	{
		"bufferView":18,
		"type":"SCALAR",
		"componentType":5123,
		"count":924,
		"byteOffset":0,
		"min":[0],
		"max":[183]
	},
	{
		"bufferView":19,
		"type":"VEC3",
		"componentType":5126,
		"count":184,
		"byteOffset":0,
		"min":[-26.087,
		33.806,
		22.294],
		"max":[25.469,
		41.379,
		36.299]
	},
	{
		"bufferView":19,
		"type":"VEC3",
		"componentType":5126,
		"count":184,
		"byteOffset":12,
		"min":[-1,
		-1,
		-1],
		"max":[0.99,
		1,
		1]
	},
	{
		"bufferView":19,
		"type":"VEC2",
		"componentType":5126,
		"count":184,
		"byteOffset":24,
		"min":[0.122,
		0.647],
		"max":[0.455,
		0.714]
	},
	{
		"bufferView":20,
		"type":"SCALAR",
		"componentType":5123,
		"count":2724,
		"byteOffset":0,
		"min":[0],
		"max":[532]
	},
	{
		"bufferView":21,
		"type":"VEC3",
		"componentType":5126,
		"count":533,
		"byteOffset":0,
		"min":[24.373,
		30.924,
		23.212],
		"max":[29.165,
		40.775,
		32.998]
	},
	{
		"bufferView":21,
		"type":"VEC3",
		"componentType":5126,
		"count":533,
		"byteOffset":12,
		"min":[-1,
		-0.972,
		-0.974],
		"max":[1,
		0.973,
		0.985]
	},
	{
		"bufferView":21,
		"type":"VEC2",
		"componentType":5126,
		"count":533,
		"byteOffset":24,
		"min":[0.514,
		0.359],
		"max":[0.592,
		0.606]
	},
	{
		"bufferView":22,
		"type":"SCALAR",
		"componentType":5123,
		"count":10578,
		"byteOffset":0,
		"min":[0],
		"max":[2181]
	},
	{
		"bufferView":23,
		"type":"VEC3",
		"componentType":5126,
		"count":2182,
		"byteOffset":0,
		"min":[-26.781,
		14.751,
		-20.547],
		"max":[26.781,
		117.167,
		46.69]
	},
	{
		"bufferView":23,
		"type":"VEC3",
		"componentType":5126,
		"count":2182,
		"byteOffset":12,
		"min":[-1,
		-1,
		-1],
		"max":[1,
		1,
		1]
	},
	{
		"bufferView":23,
		"type":"VEC2",
		"componentType":5126,
		"count":2182,
		"byteOffset":24,
		"min":[0.009,
		0.009],
		"max":[0.724,
		0.668]
	},
	{
		"bufferView":24,
		"type":"SCALAR",
		"componentType":5123,
		"count":6300,
		"byteOffset":0,
		"min":[0],
		"max":[1163]
	},
	{
		"bufferView":25,
		"type":"VEC3",
		"componentType":5126,
		"count":1164,
		"byteOffset":0,
		"min":[25.373,
		1.367,
		-21.252],
		"max":[37.998,
		51.349,
		45.525]
	},
	{
		"bufferView":25,
		"type":"VEC3",
		"componentType":5126,
		"count":1164,
		"byteOffset":12,
		"min":[-1,
		-1,
		-1],
		"max":[1,
		1,
		1]
	},
	{
		"bufferView":25,
		"type":"VEC2",
		"componentType":5126,
		"count":1164,
		"byteOffset":24,
		"min":[0.615,
		0.232],
		"max":[0.989,
		0.857]
	}],
	"bufferViews":[{
		"buffer":0,
		"byteOffset":0,
		"byteLength":168,
		"target":34963
	},
	{
		"buffer":0,
		"byteOffset":168,
		"byteLength":768,
		"target":34962,
		"byteStride":32
	},
	{
		"buffer":1,
		"byteOffset":0,
		"byteLength":360,
		"target":34963
	},
	{
		"buffer":1,
		"byteOffset":360,
		"byteLength":1376,
		"target":34962,
		"byteStride":32
	},
	{
		"buffer":2,
		"byteOffset":0,
		"byteLength":672,
		"target":34963
	},
	{
		"buffer":2,
		"byteOffset":672,
		"byteLength":2432,
		"target":34962,
		"byteStride":32
	},
	{
		"buffer":3,
		"byteOffset":0,
		"byteLength":360,
		"target":34963
	},
	{
		"buffer":3,
		"byteOffset":360,
		"byteLength":4608,
		"target":34962,
		"byteStride":32
	},
	{
		"buffer":4,
		"byteOffset":0,
		"byteLength":168,
		"target":34963
	},
	{
		"buffer":4,
		"byteOffset":168,
		"byteLength":768,
		"target":34962,
		"byteStride":32
	},
	{
		"buffer":5,
		"byteOffset":0,
		"byteLength":1968,
		"target":34963
	},
	{
		"buffer":5,
		"byteOffset":1968,
		"byteLength":5984,
		"target":34962,
		"byteStride":32
	},
	{
		"buffer":6,
		"byteOffset":0,
		"byteLength":3168,
		"target":34963
	},
	{
		"buffer":6,
		"byteOffset":3168,
		"byteLength":9216,
		"target":34962,
		"byteStride":32
	},
	{
		"buffer":7,
		"byteOffset":0,
		"byteLength":1944,
		"target":34963
	},
	{
		"buffer":7,
		"byteOffset":1944,
		"byteLength":5728,
		"target":34962,
		"byteStride":32
	},
	{
		"buffer":8,
		"byteOffset":0,
		"byteLength":5880,
		"target":34963
	},
	{
		"buffer":8,
		"byteOffset":5880,
		"byteLength":17088,
		"target":34962,
		"byteStride":32
	},
	{
		"buffer":9,
		"byteOffset":0,
		"byteLength":1848,
		"target":34963
	},
	{
		"buffer":9,
		"byteOffset":1848,
		"byteLength":5888,
		"target":34962,
		"byteStride":32
	},
	{
		"buffer":10,
		"byteOffset":0,
		"byteLength":5448,
		"target":34963
	},
	{
		"buffer":10,
		"byteOffset":5448,
		"byteLength":17056,
		"target":34962,
		"byteStride":32
	},
	{
		"buffer":11,
		"byteOffset":0,
		"byteLength":21156,
		"target":34963
	},
	{
		"buffer":11,
		"byteOffset":21156,
		"byteLength":69824,
		"target":34962,
		"byteStride":32
	},
	{
		"buffer":12,
		"byteOffset":0,
		"byteLength":12600,
		"target":34963
	},
	{
		"buffer":12,
		"byteOffset":12600,
		"byteLength":37248,
		"target":34962,
		"byteStride":32
	}],
	"buffers":[{
		"uri":"data:application/octet-stream;base64,",
		"byteLength":936
	},
	{
		"uri":"data:application/octet-stream;base64,",
		"byteLength":1736
	},
	{
		"uri":"data:application/octet-stream;base64,",
		"byteLength":3104
	},
	{
		"uri":"data:application/octet-stream;base64,",
		"byteLength":4968
	},
	{
		"uri":"data:application/octet-stream;base64,",
		"byteLength":936
	},
	{
		"uri":"data:application/octet-stream;base64,",
		"byteLength":7952
	},
	{
		"uri":"data:application/octet-stream;base64,",
		"byteLength":12384
	},
	{
		"uri":"data:application/octet-stream;base64,",
		"byteLength":7672
	},
	{
		"uri":"data:application/octet-stream;base64,",
		"byteLength":22968
	},
	{
		"uri":"data:application/octet-stream;base64,",
		"byteLength":7736
	},
	{
		"uri":"data:application/octet-stream;base64,",
		"byteLength":22504
	},
	{
		"uri":"data:application/octet-stream;base64,",
		"byteLength":90980
	},
	{
		"uri":"data:application/octet-stream;base64,",
		"byteLength":49848
	}],
	"images":[{
		"uri":"data:image/jpeg;base64,"
	},
	{
		"uri":"data:image/jpeg;base64,"
	},
	{
		"uri":"data:image/jpeg;base64,"
	}],
	"samplers":[{
		"magFilter":9729,
		"minFilter":9987,
		"wrapS":10497,
		"wrapT":10497
	},
	{
		"magFilter":9729,
		"minFilter":9987,
		"wrapS":10497,
		"wrapT":10497
	},
	{
		"magFilter":9729,
		"minFilter":9987,
		"wrapS":10497,
		"wrapT":10497
	},
	{
		"magFilter":9729,
		"minFilter":9987,
		"wrapS":10497,
		"wrapT":10497
	}],
	"textures":[{
		"sampler":0,
		"source":0
	},
	{
		"sampler":1,
		"source":1
	},
	{
		"sampler":2,
		"source":0
	},
	{
		"sampler":3,
		"source":2
	}],
	"materials":[{
		"pbrMetallicRoughness":{
			"baseColorTexture":{
				"index":0
			},
			"baseColorFactor":[1,
			1,
			1,
			1],
			"metallicFactor":0,
			"roughnessFactor":0.5
		},
		"normalTexture":{
			"index":1,
			"scale":1
		},
		"emissiveFactor":[0,
		0,
		0],
		"alphaMode":"OPAQUE",
		"doubleSided":false,
		"name":"Laterales"
	},
	{
		"pbrMetallicRoughness":{
			"baseColorTexture":{
				"index":2
			},
			"baseColorFactor":[1,
			1,
			1,
			1],
			"metallicFactor":0,
			"roughnessFactor":0.5
		},
		"normalTexture":{
			"index":3,
			"scale":1
		},
		"emissiveFactor":[0,
		0,
		0],
		"alphaMode":"OPAQUE",
		"doubleSided":false,
		"name":"Butaca1"
	}]
}