{
	"asset":{
		"version":"2.0",
		"generator":"Created using the official Cinema 4D glTF Exporter 1.000x290161"
	},
	"scenes":[{
		"nodes":[0]
	}],
	"nodes":[{
		"name":"Cuarto",
		"translation":[-7.672,
		164.856,
		-4.09],
		"rotation":[0,
		0,
		0,
		-1],
		"scale":[1,
		1,
		1],
		"mesh":0
	}],
	"meshes":[{
		"primitives":[{
			"attributes":{
				"POSITION":1,
				"NORMAL":2
			},
			"indices":0,
			"material":0
		}]
	}],
	"accessors":[{
		"bufferView":0,
		"type":"SCALAR",
		"componentType":5123,
		"count":15102,
		"byteOffset":0,
		"min":[0],
		"max":[5167]
	},
	{
		"bufferView":1,
		"type":"VEC3",
		"componentType":5126,
		"count":5168,
		"byteOffset":0,
		"min":[-179.839,
		-164.856,
		-353.422],
		"max":[179.839,
		164.856,
		353.422]
	},
	{
		"bufferView":1,
		"type":"VEC3",
		"componentType":5126,
		"count":5168,
		"byteOffset":12,
		"min":[-1,
		-1,
		-1],
		"max":[1,
		1,
		1]
	}],
	"bufferViews":[{
		"buffer":0,
		"byteOffset":0,
		"byteLength":30204,
		"target":34963
	},
	{
		"buffer":0,
		"byteOffset":30204,
		"byteLength":124032,
		"target":34962,
		"byteStride":24
	}],
	"buffers":[{
		"uri":"data:application/octet-stream;base64,",
		"byteLength":154236
	}],
	"materials":[{
		"pbrMetallicRoughness":{
			"baseColorFactor":[0,
			0,
			0,
			1],
			"metallicFactor":0,
			"roughnessFactor":0.5
		},
		"name":"MaderaNegra.1",
		"emissiveFactor":[0,
		0,
		0],
		"alphaMode":"OPAQUE",
		"doubleSided":false
	}]
}