{
    "asset" : {
        "generator" : "Khronos glTF Blender I/O v1.0.5",
        "version" : "2.0"
    },
    "extensionsUsed" : [
        "KHR_texture_transform"
    ],
    "extensionsRequired" : [
        "KHR_texture_transform"
    ],
    "scene" : 0,
    "scenes" : [
        {
            "name" : "Scene",
            "nodes" : [
                0
            ]
        }
    ],
    "nodes" : [
        {
            "mesh" : 0,
            "name" : "Recamara__UV_",
            "rotation" : [
                0.7071068286895752,
                0,
                0,
                0.7071067094802856
            ],
            "scale" : [
                0.009999999776482582,
                0.009999999776482582,
                0.009999999776482582
            ],
            "translation" : [
                0.031213512644171715,
                0,
                2.5396769046783447
            ]
        }
    ],
    "materials" : [
        {
            "doubleSided" : true,
            "name" : "Recamara",
            "normalTexture" : {
                "extensions" : {
                    "KHR_texture_transform" : {
                        "offset" : [
                            0,
                            -1
                        ]
                    }
                },
                "index" : 0,
                "scale" : 0.20000000298023224,
                "texCoord" : 0
            },
            "pbrMetallicRoughness" : {
                "baseColorTexture" : {
                    "extensions" : {
                        "KHR_texture_transform" : {
                            "offset" : [
                                0,
                                -1
                            ]
                        }
                    },
                    "index" : 1,
                    "texCoord" : 0
                },
                "metallicFactor" : 0,
                "roughnessFactor" : 0.23431457579135895
            }
        }
    ],
    "meshes" : [
        {
            "name" : "Mesh",
            "primitives" : [
                {
                    "attributes" : {
                        "POSITION" : 0,
                        "NORMAL" : 1,
                        "TEXCOORD_0" : 2
                    },
                    "indices" : 3,
                    "material" : 0
                }
            ]
        }
    ],
    "textures" : [
        {
            "source" : 0
        },
        {
            "source" : 1
        }
    ],
    "images" : [
        {
            "bufferView" : 4,
            "mimeType" : "image/jpeg",
            "name" : "RecamaraNormal"
        },
        {
            "bufferView" : 5,
            "mimeType" : "image/jpeg",
            "name" : "RecamaraColor_de_la_Superficie"
        }
    ],
    "accessors" : [
        {
            "bufferView" : 0,
            "componentType" : 5126,
            "count" : 4233,
            "max" : [
                169.0453338623047,
                152.96514892578125,
                0
            ],
            "min" : [
                -169.0453338623047,
                -152.96514892578125,
                -241.7567596435547
            ],
            "type" : "VEC3"
        },
        {
            "bufferView" : 1,
            "componentType" : 5126,
            "count" : 4233,
            "type" : "VEC3"
        },
        {
            "bufferView" : 2,
            "componentType" : 5126,
            "count" : 4233,
            "type" : "VEC2"
        },
        {
            "bufferView" : 3,
            "componentType" : 5123,
            "count" : 13128,
            "type" : "SCALAR"
        }
    ],
    "bufferViews" : [
        {
            "buffer" : 0,
            "byteLength" : 50796,
            "byteOffset" : 0
        },
        {
            "buffer" : 0,
            "byteLength" : 50796,
            "byteOffset" : 50796
        },
        {
            "buffer" : 0,
            "byteLength" : 33864,
            "byteOffset" : 101592
        },
        {
            "buffer" : 0,
            "byteLength" : 26256,
            "byteOffset" : 135456
        },
        {
            "buffer" : 0,
            "byteLength" : 755440,
            "byteOffset" : 161712
        },
        {
            "buffer" : 0,
            "byteLength" : 582660,
            "byteOffset" : 917152
        }
    ],
    "buffers" : [
        {
            "byteLength" : 1499812,
            "uri" : "data:application/octet-stream;base64,"
        }
    ]
}
