{
	"asset":{
		"version":"2.0",
		"generator":"Created using the official Cinema 4D glTF Exporter 1.000x290161"
	},
	"scenes":[{
		"nodes":[0]
	}],
	"nodes":[{
		"name":"WC",
		"translation":[0,
		0,
		0],
		"rotation":[0,
		-0.707,
		0,
		-0.707],
		"scale":[1,
		1,
		1],
		"children":[1,
		2,
		3]
	},
	{
		"name":"Simm_a_1",
		"translation":[0,
		44.715,
		-17.34],
		"rotation":[0,
		0,
		0,
		-1],
		"scale":[1,
		1,
		1],
		"mesh":0
	},
	{
		"name":"g_1",
		"translation":[0,
		66.32,
		-20.331],
		"rotation":[0,
		0,
		0,
		-1],
		"scale":[1,
		1,
		1],
		"mesh":1
	},
	{
		"name":"a",
		"translation":[0,
		21.125,
		0],
		"rotation":[0,
		0,
		0,
		-1],
		"scale":[1,
		1,
		1],
		"mesh":2
	}],
	"meshes":[{
		"primitives":[{
			"attributes":{
				"POSITION":1,
				"NORMAL":2
			},
			"indices":0,
			"material":0
		}]
	},
	{
		"primitives":[{
			"attributes":{
				"POSITION":4,
				"NORMAL":5
			},
			"indices":3,
			"material":1
		}]
	},
	{
		"primitives":[{
			"attributes":{
				"POSITION":7,
				"NORMAL":8
			},
			"indices":6,
			"material":1
		}]
	}],
	"accessors":[{
		"bufferView":0,
		"type":"SCALAR",
		"componentType":5123,
		"count":3018,
		"byteOffset":0,
		"min":[0],
		"max":[796]
	},
	{
		"bufferView":1,
		"type":"VEC3",
		"componentType":5126,
		"count":797,
		"byteOffset":0,
		"min":[-9.806,
		-2.592,
		-1.831],
		"max":[9.806,
		2.592,
		1.831]
	},
	{
		"bufferView":1,
		"type":"VEC3",
		"componentType":5126,
		"count":797,
		"byteOffset":12,
		"min":[-1,
		-1,
		-1],
		"max":[1,
		1,
		1]
	},
	{
		"bufferView":2,
		"type":"SCALAR",
		"componentType":5123,
		"count":8238,
		"byteOffset":0,
		"min":[0],
		"max":[1524]
	},
	{
		"bufferView":3,
		"type":"VEC3",
		"componentType":5126,
		"count":1525,
		"byteOffset":0,
		"min":[-17.443,
		-22.726,
		-3.229],
		"max":[17.443,
		22.726,
		3.229]
	},
	{
		"bufferView":3,
		"type":"VEC3",
		"componentType":5126,
		"count":1525,
		"byteOffset":12,
		"min":[-1,
		-1,
		-1],
		"max":[1,
		0.996,
		1]
	},
	{
		"bufferView":4,
		"type":"SCALAR",
		"componentType":5123,
		"count":6000,
		"byteOffset":0,
		"min":[0],
		"max":[1038]
	},
	{
		"bufferView":5,
		"type":"VEC3",
		"componentType":5126,
		"count":1039,
		"byteOffset":0,
		"min":[-17.637,
		-21,
		-27.993],
		"max":[17.637,
		21,
		27.993]
	},
	{
		"bufferView":5,
		"type":"VEC3",
		"componentType":5126,
		"count":1039,
		"byteOffset":12,
		"min":[-1,
		-1,
		-1],
		"max":[1,
		1,
		0.999]
	}],
	"bufferViews":[{
		"buffer":0,
		"byteOffset":0,
		"byteLength":6036,
		"target":34963
	},
	{
		"buffer":0,
		"byteOffset":6036,
		"byteLength":19128,
		"target":34962,
		"byteStride":24
	},
	{
		"buffer":1,
		"byteOffset":0,
		"byteLength":16476,
		"target":34963
	},
	{
		"buffer":1,
		"byteOffset":16476,
		"byteLength":36600,
		"target":34962,
		"byteStride":24
	},
	{
		"buffer":2,
		"byteOffset":0,
		"byteLength":12000,
		"target":34963
	},
	{
		"buffer":2,
		"byteOffset":12000,
		"byteLength":24936,
		"target":34962,
		"byteStride":24
	}],
	"buffers":[{
		"uri":"data:application/octet-stream;base64,",
		"byteLength":25164
	},
	{
		"uri":"data:application/octet-stream;base64,",
		"byteLength":53076
	},
	{
		"uri":"data:application/octet-stream;base64,",
		"byteLength":36936
	}],
	"materials":[{
		"pbrMetallicRoughness":{
			"baseColorFactor":[0.14,
			0.14,
			0.14,
			1],
			"metallicFactor":1,
			"roughnessFactor":0
		},
		"name":"Aluminio",
		"emissiveFactor":[0,
		0,
		0],
		"alphaMode":"OPAQUE",
		"doubleSided":false
	},
	{
		"pbrMetallicRoughness":{
			"baseColorFactor":[0.9,
			0.9,
			0.9,
			1],
			"metallicFactor":1,
			"roughnessFactor":1
		},
		"name":"Marmolina",
		"emissiveFactor":[0,
		0,
		0],
		"alphaMode":"OPAQUE",
		"doubleSided":false
	}]
}