{
	"asset":{
		"version":"2.0",
		"generator":"Created using the official Cinema 4D glTF Exporter 1.000x290161"
	},
	"scenes":[{
		"nodes":[0]
	}],
	"nodes":[{
		"name":"Simm_a_1_1",
		"translation":[0,
		0,
		0],
		"rotation":[0,
		0,
		0,
		-1],
		"scale":[1,
		1,
		1],
		"mesh":0
	}],
	"meshes":[{
		"primitives":[{
			"attributes":{
				"POSITION":1,
				"NORMAL":2
			},
			"indices":0,
			"material":0
		}]
	}],
	"accessors":[{
		"bufferView":0,
		"type":"SCALAR",
		"componentType":5123,
		"count":17256,
		"byteOffset":0,
		"min":[0],
		"max":[3388]
	},
	{
		"bufferView":1,
		"type":"VEC3",
		"componentType":5126,
		"count":3389,
		"byteOffset":0,
		"min":[-27.993,
		0,
		-17.637],
		"max":[27.993,
		88.922,
		17.637]
	},
	{
		"bufferView":1,
		"type":"VEC3",
		"componentType":5126,
		"count":3389,
		"byteOffset":12,
		"min":[-1,
		-1,
		-1],
		"max":[1,
		1,
		1]
	}],
	"bufferViews":[{
		"buffer":0,
		"byteOffset":0,
		"byteLength":34512,
		"target":34963
	},
	{
		"buffer":0,
		"byteOffset":34512,
		"byteLength":81336,
		"target":34962,
		"byteStride":24
	}],
	"buffers":[{
		"uri":"data:application/octet-stream;base64,",
		"byteLength":115848
	}],
	"images":[{
		"uri":"data:image/jpeg;base64,"
	},
	{
		"uri":"data:image/jpeg;base64,"
	}],
	"samplers":[{
		"magFilter":9729,
		"minFilter":9987,
		"wrapS":10497,
		"wrapT":10497
	},
	{
		"magFilter":9729,
		"minFilter":9987,
		"wrapS":10497,
		"wrapT":10497
	}],
	"textures":[{
		"sampler":0,
		"source":0
	},
	{
		"sampler":1,
		"source":1
	}],
	"materials":[{
		"pbrMetallicRoughness":{
			"baseColorFactor":[0,
			0,
			0,
			1],
			"metallicFactor":0,
			"roughnessFactor":0.5
		},
		"normalTexture":{
			"index":0,
			"scale":1
		},
		"emissiveTexture":{
			"index":1
		},
		"name":"Simm_a_1",
		"emissiveFactor":[1,
		1,
		1],
		"alphaMode":"OPAQUE",
		"doubleSided":false
	}]
}