{
	"asset":{
		"version":"2.0",
		"generator":"Created using the official Cinema 4D glTF Exporter 1.000x290161"
	},
	"scenes":[{
		"nodes":[0]
	}],
	"nodes":[{
		"name":"Simm_a_1_1",
		"translation":[0,
		0,
		0],
		"rotation":[0,
		0,
		0,
		-1],
		"scale":[1,
		1,
		1],
		"mesh":0
	}],
	"meshes":[{
		"primitives":[{
			"attributes":{
				"POSITION":1
			},
			"indices":0,
			"material":0
		}]
	}],
	"accessors":[{
		"bufferView":0,
		"type":"SCALAR",
		"componentType":5123,
		"count":17256,
		"byteOffset":0,
		"min":[0],
		"max":[2911]
	},
	{
		"bufferView":1,
		"type":"VEC3",
		"componentType":5126,
		"count":2912,
		"byteOffset":0,
		"min":[-27.993,
		0,
		-17.637],
		"max":[27.993,
		88.922,
		17.637]
	}],
	"bufferViews":[{
		"buffer":0,
		"byteOffset":0,
		"byteLength":34512,
		"target":34963
	},
	{
		"buffer":0,
		"byteOffset":34512,
		"byteLength":34944,
		"target":34962
	}],
	"buffers":[{
		"uri":"data:application/octet-stream;base64,",
		"byteLength":69456
	}],
	"materials":[{
		"pbrMetallicRoughness":{
			"baseColorFactor":[0,
			0,
			0,
			1],
			"metallicFactor":0,
			"roughnessFactor":0.5
		},
		"name":"Simm_a_1",
		"emissiveFactor":[1,
		1,
		1],
		"alphaMode":"OPAQUE",
		"doubleSided":false
	}]
}